<svg width="161" height="61" viewBox="0 0 161 61" fill="none" xmlns="http://www.w3.org/2000/svg">
<path d="M67.6149 29.5844C69.4579 30.0259 70.9383 31.0617 72.0561 32.6917C73.174 34.2878 73.7329 36.1215 73.7329 38.193C73.7329 41.1814 72.7963 43.5586 70.9232 45.3244C69.0802 47.0563 66.497 47.9223 63.1736 47.9223H48.3543V12.1635H62.6751C65.9079 12.1635 68.4306 12.9955 70.2434 14.6595C72.0863 16.3234 73.0078 18.5817 73.0078 21.4343C73.0078 23.5397 72.5093 25.2886 71.5123 26.6809C70.5455 28.0733 69.2464 29.0411 67.6149 29.5844ZM56.1038 26.63H61.1796C62.4485 26.63 63.4153 26.3244 64.08 25.7131C64.7749 25.0679 65.1223 24.134 65.1223 22.9115C65.1223 21.689 64.7749 20.7551 64.08 20.1099C63.4153 19.4647 62.4485 19.142 61.1796 19.142H56.1038V26.63ZM61.814 40.8928C63.1132 40.8928 64.1102 40.5702 64.8051 39.925C65.5302 39.2458 65.8928 38.2779 65.8928 37.0215C65.8928 35.765 65.5151 34.7802 64.7598 34.067C64.0347 33.3539 63.0226 32.9973 61.7234 32.9973H56.1038V40.8928H61.814Z" fill="#EB5A3C"/>
<path d="M89.7387 48.3298C87.2613 48.3298 85.0255 47.7355 83.0315 46.547C81.0677 45.3584 79.5117 43.6604 78.3636 41.4531C77.2458 39.2458 76.6868 36.6649 76.6868 33.7105C76.6868 30.79 77.2609 28.2261 78.4089 26.0187C79.557 23.7774 81.1281 22.0625 83.1221 20.874C85.1162 19.6854 87.3519 19.0911 89.8293 19.0911C92.3068 19.0911 94.5425 19.6854 96.5365 20.874C98.5306 22.0625 100.102 23.7774 101.25 26.0187C102.398 28.2261 102.972 30.79 102.972 33.7105C102.972 36.6309 102.383 39.2118 101.204 41.4531C100.056 43.6604 98.4702 45.3584 96.4459 46.547C94.4519 47.7355 92.2161 48.3298 89.7387 48.3298ZM89.7387 40.7909C91.2191 40.7909 92.4729 40.1796 93.5002 38.9571C94.5576 37.7346 95.0863 35.9857 95.0863 33.7105C95.0863 31.4352 94.5727 29.6863 93.5455 28.4638C92.5485 27.2413 91.3098 26.63 89.8293 26.63C88.3187 26.63 87.0649 27.2413 86.0679 28.4638C85.0708 29.6524 84.5723 31.4012 84.5723 33.7105C84.5723 35.9857 85.0557 37.7346 86.0225 38.9571C87.0196 40.1796 88.2583 40.7909 89.7387 40.7909Z" fill="#EB5A3C"/>
<path d="M118.594 48.3298C116.117 48.3298 113.881 47.7355 111.887 46.547C109.923 45.3584 108.367 43.6604 107.219 41.4531C106.101 39.2458 105.542 36.6649 105.542 33.7105C105.542 30.79 106.116 28.2261 107.264 26.0187C108.412 23.7774 109.984 22.0625 111.978 20.874C113.972 19.6854 116.207 19.0911 118.685 19.0911C121.162 19.0911 123.398 19.6854 125.392 20.874C127.386 22.0625 128.957 23.7774 130.105 26.0187C131.253 28.2261 131.827 30.79 131.827 33.7105C131.827 36.6309 131.238 39.2118 130.06 41.4531C128.912 43.6604 127.326 45.3584 125.301 46.547C123.307 47.7355 121.072 48.3298 118.594 48.3298ZM118.594 40.7909C120.075 40.7909 121.328 40.1796 122.356 38.9571C123.413 37.7346 123.942 35.9857 123.942 33.7105C123.942 31.4352 123.428 29.6863 122.401 28.4638C121.404 27.2413 120.165 26.63 118.685 26.63C117.174 26.63 115.92 27.2413 114.923 28.4638C113.926 29.6524 113.428 31.4012 113.428 33.7105C113.428 35.9857 113.911 37.7346 114.878 38.9571C115.875 40.1796 117.114 40.7909 118.594 40.7909Z" fill="#EB5A3C"/>
<path d="M151.392 47.9223L143.688 36.0027V47.9223H135.939V10.2278H143.688V31.0617L151.347 19.4986H160.909L150.395 33.7614L161 47.9223H151.392Z" fill="#EB5A3C"/>
<path d="M39.7874 52.6775L37.2501 48.6575L37.2686 48.816L13.7647 41.0225L9.83968 5.22582L6.54204 0.000798686C3.19464 -0.0709544 -0.318006 4.70848 0.022991 7.66658L5.34011 51.132L34.633 61C33.3721 57.9545 34.0792 52.8446 39.7862 52.6793L39.7874 52.6775ZM11.0957 39.4563L6.78555 3.05159L7.3316 3.50381L11.8357 39.4222L11.0942 39.455L11.0957 39.4563ZM6.0046 50.5068C6.0046 50.5068 5.65294 45.0954 11.8211 43.3934L36.9592 51.7502C36.9592 51.7502 31.7889 54.2649 32.7552 59.0787L6.00343 50.5086L6.0046 50.5068ZM9.83968 5.22582L9.70582 4.00284L33.0444 11.9402L37.2501 48.6575L39.7858 52.6762C39.7606 52.6773 39.7353 52.6784 39.7101 52.6796L40.2035 52.8459L35.0993 9.7358L6.60788 0.102118L9.83926 5.22272L9.83968 5.22582Z" fill="#EB5A3C"/>
</svg>
